<?xml version="1.0" encoding="UTF-8" standalone="no"?>
<!-- Created with Inkscape (http://www.inkscape.org/) -->

<svg
   xmlns:dc="http://purl.org/dc/elements/1.1/"
   xmlns:cc="http://creativecommons.org/ns#"
   xmlns:rdf="http://www.w3.org/1999/02/22-rdf-syntax-ns#"
   xmlns:svg="http://www.w3.org/2000/svg"
   xmlns="http://www.w3.org/2000/svg"
   xmlns:sodipodi="http://sodipodi.sourceforge.net/DTD/sodipodi-0.dtd"
   xmlns:inkscape="http://www.inkscape.org/namespaces/inkscape"
   width="744.09448819"
   height="1052.3622047"
   id="svg2"
   version="1.1"
   inkscape:version="0.48.3.1 r9886"
   sodipodi:docname="open-science-posters-logo.svg">
  <sodipodi:namedview
     id="base"
     pagecolor="#ffffff"
     bordercolor="#666666"
     borderopacity="1.0"
     inkscape:pageopacity="0.0"
     inkscape:pageshadow="2"
     inkscape:zoom="0.49497475"
     inkscape:cx="-15.57524"
     inkscape:cy="420.29321"
     inkscape:document-units="px"
     inkscape:current-layer="layer1"
     showgrid="false"
     inkscape:window-width="1366"
     inkscape:window-height="707"
     inkscape:window-x="-2"
     inkscape:window-y="-3"
     inkscape:window-maximized="1" />
  <defs
     id="defs4" />
  <metadata
     id="metadata7">
    <rdf:RDF>
      <cc:Work
         rdf:about="">
        <dc:format>image/svg+xml</dc:format>
        <dc:type
           rdf:resource="http://purl.org/dc/dcmitype/StillImage" />
        <dc:title></dc:title>
      </cc:Work>
    </rdf:RDF>
  </metadata>
  <g
     id="layer1"
     inkscape:groupmode="layer"
     inkscape:label="Layer 1">
    <rect
       ry="23.905197"
       y="73.582085"
       x="157.31413"
       height="394.37973"
       width="445.78384"
       id="rect4432"
       style="fill:none;stroke:#000000;stroke-width:2" />
    <g
       transform="translate(-9.0164356,-323.42276)"
       id="g4434">
      <g
         id="g4436"
         transform="translate(257.85714,589.50506)"
         inkscape:label="Gear25">
        <path
           id="path4438"
           d="m 72.99,-5.685 1.563,-0.122 4.867,0.81 6.493,2.706 0,4.582 -6.493,2.706 -4.867,0.81 -1.563,-0.122 -0.879,6.96 1.544,0.271 4.513,1.995 5.616,4.236 -1.14,4.438 -6.961,1.006 -4.917,-0.426 -1.483,-0.506 -2.582,6.522 1.427,0.646 3.876,3.055 4.386,5.499 -2.207,4.016 -6.994,-0.757 -4.656,-1.635 -1.31,-0.86 -4.123,5.676 1.222,0.981 2.993,3.923 2.881,6.417 -3.136,3.34 -6.585,-2.473 -4.104,-2.741 -1.055,-1.158 -5.406,4.471 0.94,1.254 1.924,4.545 1.195,6.931 -3.869,2.455 -5.763,-4.032 -3.293,-3.676 -0.734,-1.384 -6.348,2.987 0.599,1.448 0.733,4.88 -0.567,7.011 -4.357,1.416 -4.58,-5.339 -2.275,-4.379 -0.367,-1.523 -6.891,1.314 0.22,1.552 L 9.974,78.95 7.681,85.6 3.108,85.887 0,79.577 -1.114,74.77 l 0.023,-1.567 -7.001,-0.44 -0.173,1.557 -1.709,4.63 -3.874,5.871 -4.501,-0.859 -1.441,-6.885 0.116,-4.933 0.412,-1.512 -6.671,-2.168 -0.555,1.466 -2.806,4.059 -5.213,4.723 -4.146,-1.951 0.316,-7.027 1.34,-4.749 0.775,-1.362 -5.923,-3.759 -0.902,1.281 -3.727,3.235 -6.224,3.278 -3.53,-2.921 2.053,-6.728 2.479,-4.267 1.09,-1.126 -4.802,-5.114 -1.193,1.017 -4.414,2.206 -6.844,1.627 -2.693,-3.707 3.663,-6.005 3.461,-3.517 1.336,-0.82 -3.38,-6.147 -1.407,0.688 -4.825,1.038 -7.033,-0.125 -1.686,-4.26 5.04,-4.906 4.228,-2.546 1.497,-0.462 -1.744,-6.794 -1.535,0.316 -4.931,-0.194 -6.781,-1.87 -0.574,-4.546 6.103,-3.498 4.728,-1.414 1.565,-0.076 0,-7.014 -1.565,-0.076 -4.728,-1.414 -6.103,-3.498 0.574,-4.546 6.781,-1.87 4.931,-0.194 1.535,0.316 1.744,-6.794 -1.497,-0.462 -4.228,-2.546 -5.04,-4.906 1.686,-4.26 7.033,-0.125 4.825,1.038 1.407,0.688 3.38,-6.147 -1.336,-0.82 -3.461,-3.517 -3.663,-6.005 2.693,-3.707 6.844,1.627 4.414,2.206 1.193,1.017 4.802,-5.114 -1.09,-1.126 -2.479,-4.267 -2.053,-6.728 3.53,-2.921 6.224,3.278 3.727,3.235 0.902,1.281 5.923,-3.759 -0.775,-1.362 -1.34,-4.749 -0.316,-7.027 4.146,-1.951 5.213,4.723 2.806,4.059 0.555,1.466 6.671,-2.168 -0.412,-1.512 -0.116,-4.933 1.441,-6.885 4.501,-0.859 3.874,5.871 1.709,4.63 0.173,1.557 7.001,-0.44 -0.023,-1.567 1.114,-4.807 3.108,-6.31 4.573,0.287 2.293,6.65 0.503,4.909 -0.22,1.552 6.891,1.314 0.367,-1.523 2.275,-4.379 4.58,-5.339 4.357,1.416 0.567,7.011 -0.733,4.88 -0.599,1.448 6.348,2.987 0.734,-1.384 3.293,-3.676 5.763,-4.032 3.869,2.455 -1.195,6.931 -1.924,4.545 -0.94,1.254 5.406,4.471 1.055,-1.158 4.104,-2.741 6.585,-2.473 3.136,3.34 -2.881,6.417 -2.993,3.923 -1.222,0.981 4.123,5.676 1.31,-0.86 4.656,-1.635 6.994,-0.757 2.207,4.016 -4.386,5.499 -3.876,3.055 -1.427,0.646 2.582,6.522 1.483,-0.506 4.917,-0.426 6.961,1.006 1.14,4.438 -5.616,4.236 -4.513,1.995 -1.544,0.271 z"
           style="fill:none;stroke:#000000"
           inkscape:connector-curvature="0" />
      </g>
      <path
         sodipodi:type="arc"
         style="fill:none;stroke:#000000;stroke-width:0.50722545"
         id="path4440"
         sodipodi:cx="260.35715"
         sodipodi:cy="589.86218"
         sodipodi:rx="41.785713"
         sodipodi:ry="41.785713"
         d="m 302.14286,589.86218 c 0,23.07761 -18.7081,41.78572 -41.78571,41.78572 -23.07761,0 -41.78572,-18.70811 -41.78572,-41.78572 0,-23.07761 18.70811,-41.78571 41.78572,-41.78571 23.07761,0 41.78571,18.7081 41.78571,41.78571 z"
         transform="matrix(1.4786325,0,0,1.4786325,-126.9204,-282.68433)" />
    </g>
    <g
       transform="translate(122.61872,-418.37709)"
       id="g4442">
      <g
         inkscape:label="Gear25"
         transform="translate(257.85714,589.50506)"
         id="g4444">
        <path
           inkscape:connector-curvature="0"
           style="fill:none;stroke:#000000"
           d="m 72.99,-5.685 1.563,-0.122 4.867,0.81 6.493,2.706 0,4.582 -6.493,2.706 -4.867,0.81 -1.563,-0.122 -0.879,6.96 1.544,0.271 4.513,1.995 5.616,4.236 -1.14,4.438 -6.961,1.006 -4.917,-0.426 -1.483,-0.506 -2.582,6.522 1.427,0.646 3.876,3.055 4.386,5.499 -2.207,4.016 -6.994,-0.757 -4.656,-1.635 -1.31,-0.86 -4.123,5.676 1.222,0.981 2.993,3.923 2.881,6.417 -3.136,3.34 -6.585,-2.473 -4.104,-2.741 -1.055,-1.158 -5.406,4.471 0.94,1.254 1.924,4.545 1.195,6.931 -3.869,2.455 -5.763,-4.032 -3.293,-3.676 -0.734,-1.384 -6.348,2.987 0.599,1.448 0.733,4.88 -0.567,7.011 -4.357,1.416 -4.58,-5.339 -2.275,-4.379 -0.367,-1.523 -6.891,1.314 0.22,1.552 L 9.974,78.95 7.681,85.6 3.108,85.887 0,79.577 -1.114,74.77 l 0.023,-1.567 -7.001,-0.44 -0.173,1.557 -1.709,4.63 -3.874,5.871 -4.501,-0.859 -1.441,-6.885 0.116,-4.933 0.412,-1.512 -6.671,-2.168 -0.555,1.466 -2.806,4.059 -5.213,4.723 -4.146,-1.951 0.316,-7.027 1.34,-4.749 0.775,-1.362 -5.923,-3.759 -0.902,1.281 -3.727,3.235 -6.224,3.278 -3.53,-2.921 2.053,-6.728 2.479,-4.267 1.09,-1.126 -4.802,-5.114 -1.193,1.017 -4.414,2.206 -6.844,1.627 -2.693,-3.707 3.663,-6.005 3.461,-3.517 1.336,-0.82 -3.38,-6.147 -1.407,0.688 -4.825,1.038 -7.033,-0.125 -1.686,-4.26 5.04,-4.906 4.228,-2.546 1.497,-0.462 -1.744,-6.794 -1.535,0.316 -4.931,-0.194 -6.781,-1.87 -0.574,-4.546 6.103,-3.498 4.728,-1.414 1.565,-0.076 0,-7.014 -1.565,-0.076 -4.728,-1.414 -6.103,-3.498 0.574,-4.546 6.781,-1.87 4.931,-0.194 1.535,0.316 1.744,-6.794 -1.497,-0.462 -4.228,-2.546 -5.04,-4.906 1.686,-4.26 7.033,-0.125 4.825,1.038 1.407,0.688 3.38,-6.147 -1.336,-0.82 -3.461,-3.517 -3.663,-6.005 2.693,-3.707 6.844,1.627 4.414,2.206 1.193,1.017 4.802,-5.114 -1.09,-1.126 -2.479,-4.267 -2.053,-6.728 3.53,-2.921 6.224,3.278 3.727,3.235 0.902,1.281 5.923,-3.759 -0.775,-1.362 -1.34,-4.749 -0.316,-7.027 4.146,-1.951 5.213,4.723 2.806,4.059 0.555,1.466 6.671,-2.168 -0.412,-1.512 -0.116,-4.933 1.441,-6.885 4.501,-0.859 3.874,5.871 1.709,4.63 0.173,1.557 7.001,-0.44 -0.023,-1.567 1.114,-4.807 3.108,-6.31 4.573,0.287 2.293,6.65 0.503,4.909 -0.22,1.552 6.891,1.314 0.367,-1.523 2.275,-4.379 4.58,-5.339 4.357,1.416 0.567,7.011 -0.733,4.88 -0.599,1.448 6.348,2.987 0.734,-1.384 3.293,-3.676 5.763,-4.032 3.869,2.455 -1.195,6.931 -1.924,4.545 -0.94,1.254 5.406,4.471 1.055,-1.158 4.104,-2.741 6.585,-2.473 3.136,3.34 -2.881,6.417 -2.993,3.923 -1.222,0.981 4.123,5.676 1.31,-0.86 4.656,-1.635 6.994,-0.757 2.207,4.016 -4.386,5.499 -3.876,3.055 -1.427,0.646 2.582,6.522 1.483,-0.506 4.917,-0.426 6.961,1.006 1.14,4.438 -5.616,4.236 -4.513,1.995 -1.544,0.271 z"
           id="path4446" />
      </g>
      <path
         transform="matrix(1.4786325,0,0,1.4786325,-126.9204,-282.68433)"
         d="m 302.14286,589.86218 c 0,23.07761 -18.7081,41.78572 -41.78571,41.78572 -23.07761,0 -41.78572,-18.70811 -41.78572,-41.78572 0,-23.07761 18.70811,-41.78571 41.78572,-41.78571 23.07761,0 41.78571,18.7081 41.78571,41.78571 z"
         sodipodi:ry="41.785713"
         sodipodi:rx="41.785713"
         sodipodi:cy="589.86218"
         sodipodi:cx="260.35715"
         id="path4448"
         style="fill:none;stroke:#000000;stroke-width:0.50722545"
         sodipodi:type="arc" />
    </g>
    <text
       sodipodi:linespacing="125%"
       id="text4450"
       y="280.64285"
       x="233.2935"
       style="font-size:40px;font-style:normal;font-weight:normal;line-height:125%;letter-spacing:0px;word-spacing:0px;fill:#000000;fill-opacity:1;stroke:none;font-family:Sans"
       xml:space="preserve"><tspan
         y="280.64285"
         x="233.2935"
         id="tspan4452"
         sodipodi:role="line">O</tspan></text>
    <text
       sodipodi:linespacing="125%"
       id="text4454"
       y="185.68851"
       x="367.77042"
       style="font-size:40px;font-style:normal;font-weight:normal;line-height:125%;letter-spacing:0px;word-spacing:0px;fill:#000000;fill-opacity:1;stroke:none;font-family:Sans"
       xml:space="preserve"><tspan
         y="185.68851"
         x="367.77042"
         id="tspan4456"
         sodipodi:role="line">S</tspan></text>
    <g
       id="g4458"
       transform="translate(253.32428,-323.42276)">
      <g
         id="g4460"
         transform="translate(257.85714,589.50506)"
         inkscape:label="Gear25">
        <path
           id="path4462"
           d="m 72.99,-5.685 1.563,-0.122 4.867,0.81 6.493,2.706 0,4.582 -6.493,2.706 -4.867,0.81 -1.563,-0.122 -0.879,6.96 1.544,0.271 4.513,1.995 5.616,4.236 -1.14,4.438 -6.961,1.006 -4.917,-0.426 -1.483,-0.506 -2.582,6.522 1.427,0.646 3.876,3.055 4.386,5.499 -2.207,4.016 -6.994,-0.757 -4.656,-1.635 -1.31,-0.86 -4.123,5.676 1.222,0.981 2.993,3.923 2.881,6.417 -3.136,3.34 -6.585,-2.473 -4.104,-2.741 -1.055,-1.158 -5.406,4.471 0.94,1.254 1.924,4.545 1.195,6.931 -3.869,2.455 -5.763,-4.032 -3.293,-3.676 -0.734,-1.384 -6.348,2.987 0.599,1.448 0.733,4.88 -0.567,7.011 -4.357,1.416 -4.58,-5.339 -2.275,-4.379 -0.367,-1.523 -6.891,1.314 0.22,1.552 L 9.974,78.95 7.681,85.6 3.108,85.887 0,79.577 -1.114,74.77 l 0.023,-1.567 -7.001,-0.44 -0.173,1.557 -1.709,4.63 -3.874,5.871 -4.501,-0.859 -1.441,-6.885 0.116,-4.933 0.412,-1.512 -6.671,-2.168 -0.555,1.466 -2.806,4.059 -5.213,4.723 -4.146,-1.951 0.316,-7.027 1.34,-4.749 0.775,-1.362 -5.923,-3.759 -0.902,1.281 -3.727,3.235 -6.224,3.278 -3.53,-2.921 2.053,-6.728 2.479,-4.267 1.09,-1.126 -4.802,-5.114 -1.193,1.017 -4.414,2.206 -6.844,1.627 -2.693,-3.707 3.663,-6.005 3.461,-3.517 1.336,-0.82 -3.38,-6.147 -1.407,0.688 -4.825,1.038 -7.033,-0.125 -1.686,-4.26 5.04,-4.906 4.228,-2.546 1.497,-0.462 -1.744,-6.794 -1.535,0.316 -4.931,-0.194 -6.781,-1.87 -0.574,-4.546 6.103,-3.498 4.728,-1.414 1.565,-0.076 0,-7.014 -1.565,-0.076 -4.728,-1.414 -6.103,-3.498 0.574,-4.546 6.781,-1.87 4.931,-0.194 1.535,0.316 1.744,-6.794 -1.497,-0.462 -4.228,-2.546 -5.04,-4.906 1.686,-4.26 7.033,-0.125 4.825,1.038 1.407,0.688 3.38,-6.147 -1.336,-0.82 -3.461,-3.517 -3.663,-6.005 2.693,-3.707 6.844,1.627 4.414,2.206 1.193,1.017 4.802,-5.114 -1.09,-1.126 -2.479,-4.267 -2.053,-6.728 3.53,-2.921 6.224,3.278 3.727,3.235 0.902,1.281 5.923,-3.759 -0.775,-1.362 -1.34,-4.749 -0.316,-7.027 4.146,-1.951 5.213,4.723 2.806,4.059 0.555,1.466 6.671,-2.168 -0.412,-1.512 -0.116,-4.933 1.441,-6.885 4.501,-0.859 3.874,5.871 1.709,4.63 0.173,1.557 7.001,-0.44 -0.023,-1.567 1.114,-4.807 3.108,-6.31 4.573,0.287 2.293,6.65 0.503,4.909 -0.22,1.552 6.891,1.314 0.367,-1.523 2.275,-4.379 4.58,-5.339 4.357,1.416 0.567,7.011 -0.733,4.88 -0.599,1.448 6.348,2.987 0.734,-1.384 3.293,-3.676 5.763,-4.032 3.869,2.455 -1.195,6.931 -1.924,4.545 -0.94,1.254 5.406,4.471 1.055,-1.158 4.104,-2.741 6.585,-2.473 3.136,3.34 -2.881,6.417 -2.993,3.923 -1.222,0.981 4.123,5.676 1.31,-0.86 4.656,-1.635 6.994,-0.757 2.207,4.016 -4.386,5.499 -3.876,3.055 -1.427,0.646 2.582,6.522 1.483,-0.506 4.917,-0.426 6.961,1.006 1.14,4.438 -5.616,4.236 -4.513,1.995 -1.544,0.271 z"
           style="fill:none;stroke:#000000"
           inkscape:connector-curvature="0" />
      </g>
      <path
         sodipodi:type="arc"
         style="fill:none;stroke:#000000;stroke-width:0.50722545"
         id="path4464"
         sodipodi:cx="260.35715"
         sodipodi:cy="589.86218"
         sodipodi:rx="41.785713"
         sodipodi:ry="41.785713"
         d="m 302.14286,589.86218 c 0,23.07761 -18.7081,41.78572 -41.78571,41.78572 -23.07761,0 -41.78572,-18.70811 -41.78572,-41.78572 0,-23.07761 18.70811,-41.78571 41.78572,-41.78571 23.07761,0 41.78571,18.7081 41.78571,41.78571 z"
         transform="matrix(1.4786325,0,0,1.4786325,-126.9204,-282.68433)" />
    </g>
    <text
       xml:space="preserve"
       style="font-size:40px;font-style:normal;font-weight:normal;line-height:125%;letter-spacing:0px;word-spacing:0px;fill:#000000;fill-opacity:1;stroke:none;font-family:Sans"
       x="498.03653"
       y="280.66238"
       id="text4466"
       sodipodi:linespacing="125%"><tspan
         sodipodi:role="line"
         id="tspan4468"
         x="498.03653"
         y="280.66238">P</tspan></text>
    <text
       sodipodi:linespacing="125%"
       id="text4470"
       y="397.82059"
       x="379.08304"
       style="font-size:40px;font-style:normal;font-weight:normal;text-align:center;line-height:125%;letter-spacing:0px;word-spacing:0px;text-anchor:middle;fill:#000000;fill-opacity:1;stroke:none;font-family:Sans"
       xml:space="preserve"><tspan
         y="397.82059"
         x="385.45023"
         id="tspan4472"
         sodipodi:role="line">Open Science </tspan><tspan
         id="tspan4474"
         y="447.82059"
         x="379.08304"
         sodipodi:role="line">Posters</tspan></text>
    <g
       id="g4478"
       transform="translate(248.8407,266.0823)"
       inkscape:label="Gear25"
       style="stroke:#000000;stroke-width:1.5">
      <path
         id="path4480"
         d="m 72.99,-5.685 1.563,-0.122 4.867,0.81 6.493,2.706 0,4.582 -6.493,2.706 -4.867,0.81 -1.563,-0.122 -0.879,6.96 1.544,0.271 4.513,1.995 5.616,4.236 -1.14,4.438 -6.961,1.006 -4.917,-0.426 -1.483,-0.506 -2.582,6.522 1.427,0.646 3.876,3.055 4.386,5.499 -2.207,4.016 -6.994,-0.757 -4.656,-1.635 -1.31,-0.86 -4.123,5.676 1.222,0.981 2.993,3.923 2.881,6.417 -3.136,3.34 -6.585,-2.473 -4.104,-2.741 -1.055,-1.158 -5.406,4.471 0.94,1.254 1.924,4.545 1.195,6.931 -3.869,2.455 -5.763,-4.032 -3.293,-3.676 -0.734,-1.384 -6.348,2.987 0.599,1.448 0.733,4.88 -0.567,7.011 -4.357,1.416 -4.58,-5.339 -2.275,-4.379 -0.367,-1.523 -6.891,1.314 0.22,1.552 L 9.974,78.95 7.681,85.6 3.108,85.887 0,79.577 -1.114,74.77 l 0.023,-1.567 -7.001,-0.44 -0.173,1.557 -1.709,4.63 -3.874,5.871 -4.501,-0.859 -1.441,-6.885 0.116,-4.933 0.412,-1.512 -6.671,-2.168 -0.555,1.466 -2.806,4.059 -5.213,4.723 -4.146,-1.951 0.316,-7.027 1.34,-4.749 0.775,-1.362 -5.923,-3.759 -0.902,1.281 -3.727,3.235 -6.224,3.278 -3.53,-2.921 2.053,-6.728 2.479,-4.267 1.09,-1.126 -4.802,-5.114 -1.193,1.017 -4.414,2.206 -6.844,1.627 -2.693,-3.707 3.663,-6.005 3.461,-3.517 1.336,-0.82 -3.38,-6.147 -1.407,0.688 -4.825,1.038 -7.033,-0.125 -1.686,-4.26 5.04,-4.906 4.228,-2.546 1.497,-0.462 -1.744,-6.794 -1.535,0.316 -4.931,-0.194 -6.781,-1.87 -0.574,-4.546 6.103,-3.498 4.728,-1.414 1.565,-0.076 0,-7.014 -1.565,-0.076 -4.728,-1.414 -6.103,-3.498 0.574,-4.546 6.781,-1.87 4.931,-0.194 1.535,0.316 1.744,-6.794 -1.497,-0.462 -4.228,-2.546 -5.04,-4.906 1.686,-4.26 7.033,-0.125 4.825,1.038 1.407,0.688 3.38,-6.147 -1.336,-0.82 -3.461,-3.517 -3.663,-6.005 2.693,-3.707 6.844,1.627 4.414,2.206 1.193,1.017 4.802,-5.114 -1.09,-1.126 -2.479,-4.267 -2.053,-6.728 3.53,-2.921 6.224,3.278 3.727,3.235 0.902,1.281 5.923,-3.759 -0.775,-1.362 -1.34,-4.749 -0.316,-7.027 4.146,-1.951 5.213,4.723 2.806,4.059 0.555,1.466 6.671,-2.168 -0.412,-1.512 -0.116,-4.933 1.441,-6.885 4.501,-0.859 3.874,5.871 1.709,4.63 0.173,1.557 7.001,-0.44 -0.023,-1.567 1.114,-4.807 3.108,-6.31 4.573,0.287 2.293,6.65 0.503,4.909 -0.22,1.552 6.891,1.314 0.367,-1.523 2.275,-4.379 4.58,-5.339 4.357,1.416 0.567,7.011 -0.733,4.88 -0.599,1.448 6.348,2.987 0.734,-1.384 3.293,-3.676 5.763,-4.032 3.869,2.455 -1.195,6.931 -1.924,4.545 -0.94,1.254 5.406,4.471 1.055,-1.158 4.104,-2.741 6.585,-2.473 3.136,3.34 -2.881,6.417 -2.993,3.923 -1.222,0.981 4.123,5.676 1.31,-0.86 4.656,-1.635 6.994,-0.757 2.207,4.016 -4.386,5.499 -3.876,3.055 -1.427,0.646 2.582,6.522 1.483,-0.506 4.917,-0.426 6.961,1.006 1.14,4.438 -5.616,4.236 -4.513,1.995 -1.544,0.271 z"
         style="fill:none;stroke:#000000;stroke-width:1.5"
         inkscape:connector-curvature="0" />
    </g>
    <path
       sodipodi:type="arc"
       style="fill:none;stroke:#000000;stroke-width:1.01445091"
       id="path4482"
       sodipodi:cx="260.35715"
       sodipodi:cy="589.86218"
       sodipodi:rx="41.785713"
       sodipodi:ry="41.785713"
       d="m 302.14286,589.86218 a 41.785713,41.785713 0 1 1 -83.57143,0 41.785713,41.785713 0 1 1 83.57143,0 z"
       transform="matrix(1.4786325,0,0,1.4786325,-135.93684,-606.10709)" />
    <g
       style="stroke:#000000;stroke-width:1.5"
       inkscape:label="Gear25"
       transform="translate(380.47585,171.12796)"
       id="g4486">
      <path
         inkscape:connector-curvature="0"
         style="fill:none;stroke:#000000;stroke-width:1.5"
         d="m 72.99,-5.685 1.563,-0.122 4.867,0.81 6.493,2.706 0,4.582 -6.493,2.706 -4.867,0.81 -1.563,-0.122 -0.879,6.96 1.544,0.271 4.513,1.995 5.616,4.236 -1.14,4.438 -6.961,1.006 -4.917,-0.426 -1.483,-0.506 -2.582,6.522 1.427,0.646 3.876,3.055 4.386,5.499 -2.207,4.016 -6.994,-0.757 -4.656,-1.635 -1.31,-0.86 -4.123,5.676 1.222,0.981 2.993,3.923 2.881,6.417 -3.136,3.34 -6.585,-2.473 -4.104,-2.741 -1.055,-1.158 -5.406,4.471 0.94,1.254 1.924,4.545 1.195,6.931 -3.869,2.455 -5.763,-4.032 -3.293,-3.676 -0.734,-1.384 -6.348,2.987 0.599,1.448 0.733,4.88 -0.567,7.011 -4.357,1.416 -4.58,-5.339 -2.275,-4.379 -0.367,-1.523 -6.891,1.314 0.22,1.552 L 9.974,78.95 7.681,85.6 3.108,85.887 0,79.577 -1.114,74.77 l 0.023,-1.567 -7.001,-0.44 -0.173,1.557 -1.709,4.63 -3.874,5.871 -4.501,-0.859 -1.441,-6.885 0.116,-4.933 0.412,-1.512 -6.671,-2.168 -0.555,1.466 -2.806,4.059 -5.213,4.723 -4.146,-1.951 0.316,-7.027 1.34,-4.749 0.775,-1.362 -5.923,-3.759 -0.902,1.281 -3.727,3.235 -6.224,3.278 -3.53,-2.921 2.053,-6.728 2.479,-4.267 1.09,-1.126 -4.802,-5.114 -1.193,1.017 -4.414,2.206 -6.844,1.627 -2.693,-3.707 3.663,-6.005 3.461,-3.517 1.336,-0.82 -3.38,-6.147 -1.407,0.688 -4.825,1.038 -7.033,-0.125 -1.686,-4.26 5.04,-4.906 4.228,-2.546 1.497,-0.462 -1.744,-6.794 -1.535,0.316 -4.931,-0.194 -6.781,-1.87 -0.574,-4.546 6.103,-3.498 4.728,-1.414 1.565,-0.076 0,-7.014 -1.565,-0.076 -4.728,-1.414 -6.103,-3.498 0.574,-4.546 6.781,-1.87 4.931,-0.194 1.535,0.316 1.744,-6.794 -1.497,-0.462 -4.228,-2.546 -5.04,-4.906 1.686,-4.26 7.033,-0.125 4.825,1.038 1.407,0.688 3.38,-6.147 -1.336,-0.82 -3.461,-3.517 -3.663,-6.005 2.693,-3.707 6.844,1.627 4.414,2.206 1.193,1.017 4.802,-5.114 -1.09,-1.126 -2.479,-4.267 -2.053,-6.728 3.53,-2.921 6.224,3.278 3.727,3.235 0.902,1.281 5.923,-3.759 -0.775,-1.362 -1.34,-4.749 -0.316,-7.027 4.146,-1.951 5.213,4.723 2.806,4.059 0.555,1.466 6.671,-2.168 -0.412,-1.512 -0.116,-4.933 1.441,-6.885 4.501,-0.859 3.874,5.871 1.709,4.63 0.173,1.557 7.001,-0.44 -0.023,-1.567 1.114,-4.807 3.108,-6.31 4.573,0.287 2.293,6.65 0.503,4.909 -0.22,1.552 6.891,1.314 0.367,-1.523 2.275,-4.379 4.58,-5.339 4.357,1.416 0.567,7.011 -0.733,4.88 -0.599,1.448 6.348,2.987 0.734,-1.384 3.293,-3.676 5.763,-4.032 3.869,2.455 -1.195,6.931 -1.924,4.545 -0.94,1.254 5.406,4.471 1.055,-1.158 4.104,-2.741 6.585,-2.473 3.136,3.34 -2.881,6.417 -2.993,3.923 -1.222,0.981 4.123,5.676 1.31,-0.86 4.656,-1.635 6.994,-0.757 2.207,4.016 -4.386,5.499 -3.876,3.055 -1.427,0.646 2.582,6.522 1.483,-0.506 4.917,-0.426 6.961,1.006 1.14,4.438 -5.616,4.236 -4.513,1.995 -1.544,0.271 z"
         id="path4488" />
    </g>
    <path
       transform="matrix(1.4786325,0,0,1.4786325,-4.3016856,-701.06142)"
       d="m 302.14286,589.86218 a 41.785713,41.785713 0 1 1 -83.57143,0 41.785713,41.785713 0 1 1 83.57143,0 z"
       sodipodi:ry="41.785713"
       sodipodi:rx="41.785713"
       sodipodi:cy="589.86218"
       sodipodi:cx="260.35715"
       id="path4490"
       style="fill:none;stroke:#000000;stroke-width:1.01445091"
       sodipodi:type="arc" />
    <g
       id="g4494"
       transform="translate(511.18142,266.0823)"
       inkscape:label="Gear25"
       style="stroke:#000000;stroke-width:1.5">
      <path
         id="path4496"
         d="m 72.99,-5.685 1.563,-0.122 4.867,0.81 6.493,2.706 0,4.582 -6.493,2.706 -4.867,0.81 -1.563,-0.122 -0.879,6.96 1.544,0.271 4.513,1.995 5.616,4.236 -1.14,4.438 -6.961,1.006 -4.917,-0.426 -1.483,-0.506 -2.582,6.522 1.427,0.646 3.876,3.055 4.386,5.499 -2.207,4.016 -6.994,-0.757 -4.656,-1.635 -1.31,-0.86 -4.123,5.676 1.222,0.981 2.993,3.923 2.881,6.417 -3.136,3.34 -6.585,-2.473 -4.104,-2.741 -1.055,-1.158 -5.406,4.471 0.94,1.254 1.924,4.545 1.195,6.931 -3.869,2.455 -5.763,-4.032 -3.293,-3.676 -0.734,-1.384 -6.348,2.987 0.599,1.448 0.733,4.88 -0.567,7.011 -4.357,1.416 -4.58,-5.339 -2.275,-4.379 -0.367,-1.523 -6.891,1.314 0.22,1.552 L 9.974,78.95 7.681,85.6 3.108,85.887 0,79.577 -1.114,74.77 l 0.023,-1.567 -7.001,-0.44 -0.173,1.557 -1.709,4.63 -3.874,5.871 -4.501,-0.859 -1.441,-6.885 0.116,-4.933 0.412,-1.512 -6.671,-2.168 -0.555,1.466 -2.806,4.059 -5.213,4.723 -4.146,-1.951 0.316,-7.027 1.34,-4.749 0.775,-1.362 -5.923,-3.759 -0.902,1.281 -3.727,3.235 -6.224,3.278 -3.53,-2.921 2.053,-6.728 2.479,-4.267 1.09,-1.126 -4.802,-5.114 -1.193,1.017 -4.414,2.206 -6.844,1.627 -2.693,-3.707 3.663,-6.005 3.461,-3.517 1.336,-0.82 -3.38,-6.147 -1.407,0.688 -4.825,1.038 -7.033,-0.125 -1.686,-4.26 5.04,-4.906 4.228,-2.546 1.497,-0.462 -1.744,-6.794 -1.535,0.316 -4.931,-0.194 -6.781,-1.87 -0.574,-4.546 6.103,-3.498 4.728,-1.414 1.565,-0.076 0,-7.014 -1.565,-0.076 -4.728,-1.414 -6.103,-3.498 0.574,-4.546 6.781,-1.87 4.931,-0.194 1.535,0.316 1.744,-6.794 -1.497,-0.462 -4.228,-2.546 -5.04,-4.906 1.686,-4.26 7.033,-0.125 4.825,1.038 1.407,0.688 3.38,-6.147 -1.336,-0.82 -3.461,-3.517 -3.663,-6.005 2.693,-3.707 6.844,1.627 4.414,2.206 1.193,1.017 4.802,-5.114 -1.09,-1.126 -2.479,-4.267 -2.053,-6.728 3.53,-2.921 6.224,3.278 3.727,3.235 0.902,1.281 5.923,-3.759 -0.775,-1.362 -1.34,-4.749 -0.316,-7.027 4.146,-1.951 5.213,4.723 2.806,4.059 0.555,1.466 6.671,-2.168 -0.412,-1.512 -0.116,-4.933 1.441,-6.885 4.501,-0.859 3.874,5.871 1.709,4.63 0.173,1.557 7.001,-0.44 -0.023,-1.567 1.114,-4.807 3.108,-6.31 4.573,0.287 2.293,6.65 0.503,4.909 -0.22,1.552 6.891,1.314 0.367,-1.523 2.275,-4.379 4.58,-5.339 4.357,1.416 0.567,7.011 -0.733,4.88 -0.599,1.448 6.348,2.987 0.734,-1.384 3.293,-3.676 5.763,-4.032 3.869,2.455 -1.195,6.931 -1.924,4.545 -0.94,1.254 5.406,4.471 1.055,-1.158 4.104,-2.741 6.585,-2.473 3.136,3.34 -2.881,6.417 -2.993,3.923 -1.222,0.981 4.123,5.676 1.31,-0.86 4.656,-1.635 6.994,-0.757 2.207,4.016 -4.386,5.499 -3.876,3.055 -1.427,0.646 2.582,6.522 1.483,-0.506 4.917,-0.426 6.961,1.006 1.14,4.438 -5.616,4.236 -4.513,1.995 -1.544,0.271 z"
         style="fill:none;stroke:#000000;stroke-width:1.5"
         inkscape:connector-curvature="0" />
    </g>
    <path
       sodipodi:type="arc"
       style="fill:none;stroke:#000000;stroke-width:1.01445091"
       id="path4498"
       sodipodi:cx="260.35715"
       sodipodi:cy="589.86218"
       sodipodi:rx="41.785713"
       sodipodi:ry="41.785713"
       d="m 302.14286,589.86218 a 41.785713,41.785713 0 1 1 -83.57143,0 41.785713,41.785713 0 1 1 83.57143,0 z"
       transform="matrix(1.4786325,0,0,1.4786325,126.40389,-606.10709)" />
  </g>
</svg>
